<?xml version="1.0" encoding="utf-8"?>
<!-- Generator: Adobe Illustrator 16.0.4, SVG Export Plug-In . SVG Version: 6.00 Build 0)  -->
<!DOCTYPE svg PUBLIC "-//W3C//DTD SVG 1.1//EN" "http://www.w3.org/Graphics/SVG/1.1/DTD/svg11.dtd">
<svg version="1.1" id="Layer_1" xmlns="http://www.w3.org/2000/svg" xmlns:xlink="http://www.w3.org/1999/xlink" x="0px" y="0px"
	 width="1000px" height="1000px" viewBox="0 0 1000 1000" enable-background="new 0 0 1000 1000" xml:space="preserve">
<path fill="#E94B4B" d="M401.245,446.641c-0.066,0-0.133,0-0.199,0s-0.133,0-0.199,0c0.066,0,0.133,0,0.199,0
	c-29.326-0.021-54.287-4.492-64.068-10.779l11.987,19.178l4.376,59.719c0,0,47.775,33.754,95.006,0l3.465-60.369l10.33-16.895
	c-11.297,5.414-34.383,9.127-61.096,9.146C401.112,446.641,401.179,446.641,401.245,446.641z"/>
<path fill="#E94B4B" d="M487.562,245.318c0,0-29.729,11.842-85.703,11.842c-39.801,0-73.592-6.083-85.621-11.842h-0.099
	l17.509,183.541l3.332,5.33c9.781,6.287,34.742,10.758,64.068,10.779c26.713-0.02,49.799-3.732,61.096-9.146l4.26-6.963"/>
<path fill="#E94B4B" d="M401.812,230.066c-47.393,0-85.812,4.453-85.812,9.947c0,5.491,38.419,13.567,85.812,13.567
	c47.398,0,85.812-8.076,85.812-13.567C487.624,234.519,449.21,230.066,401.812,230.066z M417.116,245.76
	c-5.488,0-10.369-1.659-10.369-3.088c0-0.548,0.723-1.129,1.916-1.638c0.662-1.219,4.189-2.151,8.453-2.151
	c4.197,0,7.684,0.903,8.424,2.094c1.312,0.523,2.123,1.127,2.123,1.696C427.663,244.101,422.604,245.76,417.116,245.76z"/>
<path fill="#E94B4B" d="M417.116,244.012c4.734,0,8.574-1.148,8.574-2.565c0-0.161-0.055-0.318-0.15-0.471
	c-1.982-0.79-5.121-1.392-8.424-1.392c-3.383,0-6.531,0.631-8.453,1.45c-0.072,0.135-0.121,0.272-0.121,0.414
	C408.542,242.864,412.38,244.012,417.116,244.012z"/>
<g>
	<polygon fill="#E94B4B" points="479.644,150.616 468.179,142 422.028,190.562 408.866,241.382 425.499,241.382 438.37,196.304 	"/>
</g>
</svg>
